<svg width="35" height="34" viewBox="0 0 35 34" fill="none" xmlns="http://www.w3.org/2000/svg">
<g clip-path="url(#clip0)">
<path d="M0.600083 16.4911C0.600083 7.01144 8.02058 0 17.6001 0C27.1796 0 34.6001 7.01144 34.6001 16.4911C34.6001 25.9654 27.1796 32.9821 17.6001 32.9821C15.8841 32.9821 14.2298 32.7547 12.686 32.3287C12.3844 32.2466 12.0635 32.2721 11.7786 32.4009L8.3914 33.8895C8.18702 33.9803 7.96343 34.0194 7.74036 34.0033C7.5173 33.9872 7.30163 33.9165 7.1124 33.7973C6.92316 33.6781 6.76619 33.5141 6.65533 33.3199C6.54448 33.1257 6.48315 32.9071 6.47677 32.6836L6.3769 29.6512C6.37048 29.4689 6.32749 29.2897 6.25046 29.1243C6.17344 28.959 6.06395 28.8108 5.92852 28.6886C4.22413 27.1514 2.86716 25.2684 1.94814 23.1652C1.02911 21.0621 0.569181 18.7871 0.599021 16.4921L0.600083 16.4911ZM12.3875 13.3864L7.40115 21.3223C6.90283 22.0692 7.85483 22.9383 8.56352 22.3848L13.9313 18.3175C14.1075 18.1801 14.3246 18.1054 14.5481 18.1054C14.7715 18.1054 14.9886 18.1801 15.1648 18.3175L19.1269 21.2946C19.4093 21.5042 19.7318 21.6533 20.0744 21.7327C20.417 21.8122 20.7722 21.8202 21.118 21.7563C21.4638 21.6924 21.7928 21.5579 22.0843 21.3613C22.3759 21.1647 22.6238 20.9102 22.8127 20.6136L27.799 12.6778C28.2973 11.9308 27.3453 11.0787 26.6366 11.6153L21.2689 15.6825C21.0956 15.8197 20.8811 15.8944 20.6601 15.8944C20.4391 15.8944 20.2245 15.8197 20.0513 15.6825L16.0839 12.7054C15.8019 12.4922 15.4786 12.34 15.1346 12.2585C14.7906 12.1771 14.4334 12.1681 14.0857 12.2321C13.7381 12.2962 13.4075 12.4319 13.1152 12.6306C12.8228 12.8293 12.575 13.0867 12.3875 13.3864Z" fill="#C5975F"/>
</g>
<defs>
<clipPath id="clip0">
<rect width="34" height="34" fill="white" transform="translate(0.600098)"/>
</clipPath>
</defs>
</svg>
