<svg width="30" height="30" viewBox="0 0 30 30" fill="none" xmlns="http://www.w3.org/2000/svg">
<path d="M16.4168 3.66659C19.0469 3.66659 21.5692 4.71137 23.429 6.57111C25.2887 8.43085 26.3335 10.9532 26.3335 13.5833C26.3335 13.959 26.4827 14.3193 26.7484 14.585C27.0141 14.8507 27.3744 14.9999 27.7502 14.9999C28.1259 14.9999 28.4862 14.8507 28.7519 14.585C29.0176 14.3193 29.1668 13.959 29.1668 13.5833C29.1668 10.2017 27.8235 6.95873 25.4324 4.56764C23.0414 2.17655 19.7983 0.833252 16.4168 0.833252C16.0411 0.833252 15.6808 0.982507 15.4151 1.24818C15.1494 1.51386 15.0002 1.8742 15.0002 2.24992C15.0002 2.62564 15.1494 2.98598 15.4151 3.25165C15.6808 3.51733 16.0411 3.66659 16.4168 3.66659ZM28.8127 20.5391C28.7347 20.3117 28.6002 20.1078 28.4218 19.9467C28.2433 19.7856 28.0268 19.6726 27.7927 19.6183L19.2927 17.6774C19.0619 17.6251 18.8218 17.6314 18.5941 17.6957C18.3665 17.7601 18.1585 17.8804 17.9893 18.0458C17.791 18.2299 17.7768 18.2441 16.856 20.0008C13.8005 18.5928 11.3522 16.1345 9.95683 13.0733C11.756 12.1666 11.7702 12.1666 11.9543 11.9541C12.1197 11.7849 12.24 11.5769 12.3043 11.3493C12.3687 11.1216 12.375 10.8815 12.3227 10.6508L10.3818 2.24992C10.3275 2.01574 10.2145 1.79924 10.0534 1.62079C9.89227 1.44235 9.68842 1.30784 9.461 1.22992C9.13016 1.11175 8.78852 1.02634 8.441 0.974918C8.08294 0.891895 7.71755 0.844443 7.35016 0.833252C5.62184 0.833252 3.9643 1.51983 2.74218 2.74194C1.52007 3.96405 0.833496 5.62159 0.833496 7.34992C0.840993 13.1338 3.14194 18.6786 7.23173 22.7684C11.3215 26.8581 16.8663 29.1591 22.6502 29.1666C23.5059 29.1666 24.3533 28.998 25.144 28.6705C25.9346 28.343 26.653 27.863 27.2581 27.2579C27.8633 26.6528 28.3433 25.9344 28.6708 25.1437C28.9983 24.3531 29.1668 23.5057 29.1668 22.6499C29.1673 22.2893 29.1388 21.9293 29.0818 21.5733C29.0223 21.2214 28.9322 20.8753 28.8127 20.5391Z" fill="#2B2B2B"/>
</svg>
