<svg width="33" height="33" viewBox="0 0 33 33" fill="none" xmlns="http://www.w3.org/2000/svg">
<path d="M19.2552 16.213L15.3948 14.4117C15.058 14.2553 14.7812 14.4306 14.7812 14.8036V18.1964C14.7812 18.5694 15.058 18.7447 15.3948 18.5883L19.2534 16.787C19.592 16.6289 19.592 16.3711 19.2552 16.213ZM16.5 0C7.38719 0 0 7.38719 0 16.5C0 25.6128 7.38719 33 16.5 33C25.6128 33 33 25.6128 33 16.5C33 7.38719 25.6128 0 16.5 0ZM16.5 23.2031C8.05406 23.2031 7.90625 22.4417 7.90625 16.5C7.90625 10.5583 8.05406 9.79687 16.5 9.79687C24.9459 9.79687 25.0937 10.5583 25.0937 16.5C25.0937 22.4417 24.9459 23.2031 16.5 23.2031Z" fill="white"/>
</svg>
